<svg width="324" height="41" fill="none" xmlns="http://www.w3.org/2000/svg"><path d="M75.466 15.117h-27.38l-1.015.761v24.443h7.58v-9.166l.723-.65h20.093c5.073 0 7.451-1.37 7.451-4.885v-5.612c0-3.52-2.378-4.891-7.452-4.891zm0 9.036c0 1.656-1.092 2-3.47 2h-16.54l-.807-.788V20.13l.724-.664h16.623c2.378 0 3.47.34 3.47 2.004v2.684zM96.74 19.74l6.522 9.59-.361.928H88.477l-3.682 4.546h21.471l1.488.909 3.333 4.614h8.674l-19.013-25.523m82.242 20.558v-6.784l.781-.676h14.511v-4.32h-22.999v16.744h33.925v-4.3h-25.403m25.761-20.909h-34.283v4.75h34.283v-4.75zm-72.521 4.498h27.62c-.426-3.524-2.605-4.502-8.133-4.502h-19.781c-6.238 0-8.228 1.222-8.228 5.959v13.29c0 4.743 1.99 5.965 8.228 5.965h19.781c5.609 0 7.757-1.057 7.903-4.713h-27.39l-.812-.767V20.128M28.64 24.938H8.547l-.592-.653v-4.313l.589-.457h27.087l.37-.908c-.923-2.382-3.312-3.493-7.749-3.493H9.436c-6.234 0-8.227 1.222-8.227 5.959v2.786c0 4.744 1.993 5.963 8.227 5.963h20.048l.63.555v4.509l-.513.703H6.668v-.021H.662s-.688.346-.661.507c.512 3.314 2.762 4.253 8.148 4.253h20.49c6.234 0 8.286-1.222 8.286-5.964v-3.472c0-4.734-2.052-5.954-8.285-5.954zm202.493-9.925h-11.279l-.612 1.169 12.525 9.162a125.714 125.714 0 017.762-4.155m1.709 11.083l11.009 8.056h11.416l.472-1.067-16.438-12.074a129.235 129.235 0 00-6.459 5.085z" fill="#fff"/><path d="M229.454 40.31H219.25l-.862-1.356c6.938-6.722 37.969-35.539 105.421-38.626 0 0-56.616 1.916-94.355 39.981z" fill="#17A1CC"/></svg>