<svg width="24" height="25" fill="none" xmlns="http://www.w3.org/2000/svg"><path d="M14.788 16.674l2.352-2.351c5.245-5.246 6.195-10.634 6.362-12.658a.749.749 0 00-.803-.81c-2.036.15-7.47 1.056-12.72 6.306L7.625 9.513 6.9 9.371a4.299 4.299 0 00-3.859 1.18L.235 13.359a.637.637 0 00.326 1.078l2.35.47c.66.134 1.265.457 1.74.933l1.038 1.037-1.36 1.36a.64.64 0 000 .905l.83.83c.25.25.655.25.905 0l1.36-1.36 1.036 1.037c.476.476.802 1.08.933 1.743l.47 2.348a.636.636 0 001.079.326l2.806-2.806a4.305 4.305 0 001.18-3.859l-.14-.726zm.104-7.264a2.208 2.208 0 013.12-3.12 2.207 2.207 0 01-3.12 3.12z" fill="#17A1CC"/></svg>