<svg width="24" height="25" viewBox="0 0 24 25" fill="none" xmlns="http://www.w3.org/2000/svg">
<path d="M14.7881 16.6738L17.1395 14.3225C22.3854 9.07652 23.335 3.68879 23.5024 1.66511C23.5215 1.44588 23.4422 1.23083 23.2885 1.07475C23.1337 0.918666 22.9192 0.83884 22.6994 0.854924C20.6626 1.00445 15.229 1.91055 9.97827 7.16127L7.62635 9.51319L6.89956 9.3714C5.49782 9.09916 4.0514 9.54119 3.04105 10.5515L0.234592 13.358C0.0683852 13.5242 0.00643043 13.7696 0.0737467 13.9954C0.142255 14.2212 0.329312 14.3904 0.560453 14.4357L2.91059 14.9069C3.57005 15.0397 4.17591 15.3632 4.65189 15.8392L5.68905 16.8763L4.32901 18.2364C4.0788 18.4866 4.07881 18.8917 4.32841 19.1413L5.15885 19.9717C5.40846 20.2213 5.81355 20.2213 6.06376 19.9711L7.4238 18.6111L8.46036 19.6477C8.93634 20.1236 9.26161 20.7289 9.39326 21.3907L9.86389 23.7391C9.90916 23.9702 10.0783 24.1573 10.3041 24.2258C10.5299 24.2931 10.7753 24.2312 10.9416 24.065L13.748 21.2585C14.7572 20.2493 15.1986 18.8023 14.9281 17.4L14.7881 16.6738ZM14.8918 9.40953C14.0304 8.54811 14.0298 7.14995 14.8912 6.28853C15.7532 5.42652 17.1508 5.42771 18.0122 6.28912C18.873 7.14995 18.8742 8.54752 18.0122 9.40953C17.1508 10.2709 15.7526 10.2704 14.8918 9.40953Z" fill="#17A1CC"/>
</svg>
